<svg width="94" height="91" viewBox="0 0 94 91" fill="none" xmlns="http://www.w3.org/2000/svg">
<ellipse cx="47.3994" cy="45.3086" rx="46.5127" ry="45.0766" fill="#D4AF37" fill-opacity="0.8"/>
<ellipse cx="47.4006" cy="45.3087" rx="39.0666" ry="37.8605" fill="#CEAC21"/>
<path d="M57.0043 43.1714C56.2693 43.1714 55.6882 42.5732 55.6882 41.8553C55.6882 41.2229 55.0558 39.9069 53.9961 38.7617C52.9535 37.6508 51.8084 37.0013 50.8512 37.0013C50.1163 37.0013 49.5352 36.4031 49.5352 35.6852C49.5352 34.9674 50.1334 34.3691 50.8512 34.3691C52.5604 34.3691 54.355 35.2921 55.9275 36.95C57.3974 38.5054 58.3374 40.4367 58.3374 41.8383C58.3374 42.5732 57.7392 43.1714 57.0043 43.1714Z" fill="white"/>
<path d="M63.1744 43.1721C62.4395 43.1721 61.8583 42.5739 61.8583 41.856C61.8583 35.7885 56.9188 30.866 50.8683 30.866C50.1334 30.866 49.5522 30.2678 49.5522 29.55C49.5522 28.8321 50.1334 28.2168 50.8512 28.2168C58.3716 28.2168 64.4905 34.3357 64.4905 41.856C64.4905 42.5739 63.8923 43.1721 63.1744 43.1721Z" fill="white"/>
<path d="M45.7752 50.3507L42.6132 53.5127C41.9466 54.1792 40.8869 54.1792 40.2033 53.5297C40.0153 53.3417 39.8273 53.1708 39.6392 52.9828C37.8788 51.2053 36.2893 49.3423 34.8706 47.3938C33.4691 45.4453 32.3411 43.4969 31.5206 41.5655C30.7173 39.617 30.3071 37.754 30.3071 35.9765C30.3071 34.8142 30.5122 33.7033 30.9224 32.6778C31.3326 31.6352 31.9821 30.678 32.888 29.8234C33.9819 28.7466 35.1783 28.2168 36.4431 28.2168C36.9217 28.2168 37.4002 28.3193 37.8275 28.5244C38.2719 28.7296 38.665 29.0372 38.9727 29.4816L42.938 35.0706C43.2456 35.4979 43.4678 35.891 43.6216 36.267C43.7755 36.626 43.8609 36.9849 43.8609 37.3096C43.8609 37.7198 43.7413 38.13 43.502 38.5231C43.2798 38.9163 42.9551 39.3265 42.5449 39.7367L41.2459 41.0869C41.0579 41.2749 40.9724 41.4971 40.9724 41.7706C40.9724 41.9073 40.9895 42.027 41.0237 42.1637C41.075 42.3004 41.1262 42.403 41.1604 42.5055C41.4681 43.0696 41.9979 43.8045 42.75 44.6933C43.5191 45.5821 44.3395 46.4879 45.2283 47.3938C45.3992 47.5647 45.5872 47.7356 45.7581 47.9065C46.4418 48.5731 46.4589 49.667 45.7752 50.3507Z" fill="white"/>
<path d="M64.4394 56.1278C64.4394 56.6064 64.354 57.102 64.183 57.5806C64.1318 57.7173 64.0805 57.8541 64.0121 57.9908C63.7216 58.6061 63.3455 59.1872 62.8499 59.7342C62.0124 60.6571 61.0894 61.3237 60.0468 61.751C60.0297 61.751 60.0126 61.7681 59.9956 61.7681C58.9871 62.1783 57.8933 62.4005 56.7139 62.4005C54.9706 62.4005 53.1076 61.9903 51.142 61.1528C49.1765 60.3153 47.2109 59.1872 45.2624 57.7686C44.5959 57.2729 43.9293 56.7773 43.2969 56.2474L48.8859 50.6584C49.3645 51.0173 49.7918 51.2908 50.1507 51.4788C50.2361 51.513 50.3387 51.5643 50.4583 51.6156C50.5951 51.6668 50.7318 51.6839 50.8856 51.6839C51.1762 51.6839 51.3984 51.5814 51.5864 51.3934L52.8854 50.1115C53.3127 49.6842 53.7229 49.3594 54.116 49.1543C54.5091 48.9151 54.9022 48.7954 55.3295 48.7954C55.6542 48.7954 55.9961 48.8638 56.3721 49.0176C56.7481 49.1714 57.1412 49.3936 57.5685 49.6842L63.2259 53.7008C63.6703 54.0084 63.9779 54.3673 64.166 54.7946C64.3369 55.2219 64.4394 55.6492 64.4394 56.1278Z" fill="white"/>
</svg>
